<?xml version="1.0" encoding="iso-8859-1"?>
<!-- Uploaded to: SVG Repo, www.svgrepo.com, Generator: SVG Repo Mixer Tools -->
<svg fill="#000000" height="800px" width="800px" version="1.1" id="Layer_1" xmlns="http://www.w3.org/2000/svg" xmlns:xlink="http://www.w3.org/1999/xlink" 
	 viewBox="0 0 512 512" xml:space="preserve">
<g>
	<g>
		<g>
			<path d="M281.603,136.533h-17.067c-4.719,0-8.533,3.823-8.533,8.533c0,4.71,3.814,8.533,8.533,8.533h17.067
				c4.719,0,8.533-3.823,8.533-8.533C290.137,140.356,286.322,136.533,281.603,136.533z"/>
			<path d="M296.537,230.4h10.667c10.368,0,21.948,5.154,34.21,10.598c13.056,5.803,27.904,12.407,43.059,12.407
				c11.75,0,23.671-3.977,35.072-15.369c14.549-14.558,3.464-30.541-3.866-41.122c-3.029-4.361-8.09-11.665-6.972-13.901
				c7.859-15.735-21.214-44.86-86.443-86.571c-16.503-30.865-46.234-42.189-66.261-44.672V8.533c0-4.71-3.814-8.533-8.533-8.533
				c-42.556,0-56.909,31.693-59.341,53.086c-20.983,6.349-85.726,32.179-85.726,109.047c0,61.892,12.322,88.038,22.229,109.056
				c6.656,14.106,11.904,25.25,11.904,44.544c0,18.569-5.444,34.432-10.249,48.427c-3.661,10.667-6.818,19.883-6.818,28.373
				c0,10.428,5.086,23.706,13.235,34.133h-4.702c-21.931,0-42.667,20.736-42.667,42.667v34.133c0,4.71,3.814,8.533,8.533,8.533
				h290.133c4.719,0,8.533-3.823,8.533-8.533v-34.133c0-21.931-20.736-42.667-42.667-42.667h-1.075
				c5.896-7.356,9.609-16.358,9.609-25.6c0-71.637-30.404-103.612-57.233-131.814c-19.797-20.813-38.502-40.474-45.338-74.658
				c-0.913-4.617-5.376-7.603-10.035-6.69c-4.617,0.922-7.62,5.419-6.69,10.035c7.799,39.023,29.099,61.414,49.698,83.072
				c27.017,28.407,52.531,55.236,52.531,120.055c0,12.442-13.158,25.6-25.6,25.6H196.27c-4.719,0-8.533,3.823-8.533,8.533
				s3.814,8.533,8.533,8.533h153.6c12.442,0,25.6,13.158,25.6,25.6v25.6H102.404v-25.6c0-12.442,13.158-25.6,25.6-25.6h34.133
				c4.719,0,8.533-3.823,8.533-8.533s-3.814-8.533-8.533-8.533c-11.622,0-25.6-20.966-25.6-34.133
				c0-5.649,2.731-13.611,5.897-22.827c4.975-14.507,11.17-32.555,11.17-53.973c0-23.117-6.579-37.06-13.534-51.823
				c-9.66-20.489-20.599-43.699-20.599-101.777c0-77.133,75.281-93.38,78.49-94.037c3.977-0.811,6.844-4.309,6.844-8.363
				c0-1.613,0.418-36.941,34.133-42.052V76.8c0,4.71,3.814,8.533,8.533,8.533s8.533-3.823,8.533-8.533v-7.825
				c16.307,2.466,39.543,12.109,52.096,37.24c0.7,1.382,1.758,2.56,3.055,3.388c42.394,26.974,79.326,57.156,81.835,66.748
				c-4.753,10.948,2.662,21.649,8.661,30.293c8.38,12.075,9.463,15.684,5.828,19.319c-16.606,16.614-33.417,10.872-59.136-0.555
				c-13.346-5.939-27.145-12.075-41.139-12.075h-10.667c-4.719,0-8.533,3.823-8.533,8.533
				C288.003,226.577,291.818,230.4,296.537,230.4z"/>
		</g>
	</g>
</g>
</svg>