<?xml version="1.0" encoding="iso-8859-1"?>
<!-- Uploaded to: SVG Repo, www.svgrepo.com, Generator: SVG Repo Mixer Tools -->
<svg fill="#000000" height="800px" width="800px" version="1.1" id="Layer_1" xmlns="http://www.w3.org/2000/svg" xmlns:xlink="http://www.w3.org/1999/xlink" 
	 viewBox="0 0 512 512" xml:space="preserve">
<g>
	<g>
		<path d="M349.867,426.667h-1.075c5.896-7.356,9.609-16.358,9.609-25.6c0-16.657-8.235-33.604-17.775-53.24
			c-11.665-24.013-24.892-51.243-24.892-83.294c0-43.17,4.574-68.113,6.844-77.85c10.778-3.012,18.756-12.817,18.756-24.55
			c0-10.351-6.204-19.234-15.061-23.27l21.99-80.632c5.956-2.662,10.138-8.627,10.138-15.565c0-9.412-7.654-17.067-17.067-17.067
			c-9.412,0-17.067,7.654-17.067,17.067c0,0.93,0.128,1.826,0.273,2.722c-20.309,1.963-37.282-3.789-54.579-18.551
			c1.946-2.773,3.106-6.135,3.106-9.771C273.067,7.654,265.412,0,256,0c-9.412,0-17.067,7.654-17.067,17.067
			c0,3.635,1.161,6.997,3.106,9.771C224.742,41.6,207.77,47.351,187.46,45.389c0.145-0.896,0.273-1.792,0.273-2.722
			c0-9.412-7.654-17.067-17.067-17.067c-9.412,0-17.067,7.654-17.067,17.067c0,6.938,4.181,12.902,10.138,15.565l21.982,80.58
			c-8.866,4.028-15.053,12.971-15.053,23.322c0,14.114,11.486,25.6,25.6,25.6H281.6c4.71,0,8.533-3.823,8.533-8.533
			s-3.823-8.533-8.533-8.533h-85.333c-4.702,0-8.533-3.831-8.533-8.533c0-4.702,3.831-8.533,8.533-8.533
			c2.662,0,5.163-1.246,6.784-3.354c1.613-2.116,2.15-4.855,1.451-7.424l-22.008-80.691c27.511,3.507,50.816-4.378,73.506-24.772
			c22.699,20.386,46.003,28.297,73.506,24.772l-20.292,74.402H230.4c-4.71,0-8.533,3.823-8.533,8.533
			c0,4.71,3.823,8.533,8.533,8.533h85.333c4.702,0,8.533,3.831,8.533,8.533c0,4.702-3.831,8.533-8.533,8.533
			c-0.119,0-0.205,0.06-0.324,0.068c-0.631,0.026-1.212,0.205-1.818,0.367c-0.478,0.12-0.964,0.188-1.408,0.393
			c-0.521,0.239-0.939,0.597-1.399,0.939c-0.418,0.307-0.87,0.563-1.229,0.947c-0.358,0.375-0.58,0.845-0.87,1.289
			c-0.324,0.495-0.666,0.973-0.879,1.536c-0.043,0.111-0.128,0.188-0.171,0.299c-0.367,1.092-8.969,27.605-8.969,88.03
			c0,35.985,14.754,66.347,26.615,90.752c8.61,17.732,16.051,33.05,16.051,45.781c0,12.442-13.158,25.6-25.6,25.6H230.4
			c-4.71,0-8.533,3.823-8.533,8.533s3.823,8.533,8.533,8.533h119.467c12.442,0,25.6,13.158,25.6,25.6v25.6H136.533v-25.6
			c0-12.442,13.158-25.6,25.6-25.6h34.133c4.71,0,8.533-3.823,8.533-8.533s-3.823-8.533-8.533-8.533
			c-12.442,0-25.6-13.158-25.6-25.6c0-12.732,7.441-28.049,16.051-45.781c11.861-24.405,26.615-54.767,26.615-90.752
			c0-11.221-1.408-28.834-4.173-52.343c-0.555-4.685-4.787-8.081-9.481-7.475c-4.676,0.555-8.021,4.796-7.475,9.481
			c2.654,22.519,4.062,39.927,4.062,50.338c0,32.051-13.227,59.281-24.892,83.294c-9.54,19.635-17.775,36.582-17.775,53.24
			c0,9.233,3.678,18.253,9.566,25.6h-1.033c-21.931,0-42.667,20.736-42.667,42.667v34.133c0,4.71,3.823,8.533,8.533,8.533h256
			c4.71,0,8.533-3.823,8.533-8.533v-34.133C392.533,447.403,371.797,426.667,349.867,426.667z"/>
	</g>
</g>
</svg>